<svg width="163" height="19" viewBox="0 0 163 19" fill="none" xmlns="http://www.w3.org/2000/svg">
<path d="M6.99951 18V15.3633C5.02197 15.3633 3.43555 14.8359 2.24023 13.7812C1.04492 12.7178 0.447266 11.3027 0.447266 9.53613C0.447266 7.77832 1.04053 6.37207 2.22705 5.31738C3.42236 4.25391 5.01318 3.72217 6.99951 3.72217V1.08545H9.59668V3.72217C11.583 3.72217 13.1694 4.25391 14.356 5.31738C15.5513 6.37207 16.1489 7.78271 16.1489 9.54932C16.1489 11.3071 15.5513 12.7178 14.356 13.7812C13.1694 14.8359 11.583 15.3633 9.59668 15.3633V18H6.99951ZM6.99951 13.3989V5.67334C4.37158 5.67334 3.05762 6.96094 3.05762 9.53613C3.05762 12.1113 4.37158 13.3989 6.99951 13.3989ZM9.59668 13.3989C12.2334 13.3989 13.5518 12.1113 13.5518 9.53613C13.5518 6.96094 12.2334 5.67334 9.59668 5.67334V13.3989ZM30.7432 18H28.4624V5.79199L20.6973 18H18.377V1.08545H20.6577V13.2803L28.3965 1.08545H30.7432V18ZM47.9214 17.4727C46.1812 18.0967 44.542 18.4087 43.0039 18.4087C40.3145 18.4087 38.1479 17.6045 36.5044 15.9961C34.8608 14.3789 34.0391 12.2563 34.0391 9.62842C34.0391 6.96533 34.8564 4.80762 36.4912 3.15527C38.126 1.50293 40.2617 0.676758 42.8984 0.676758C44.3926 0.676758 45.9922 0.931641 47.6973 1.44141V3.82764C45.957 3.02783 44.3311 2.62793 42.8193 2.62793C41.0703 2.62793 39.6289 3.26953 38.4951 4.55273C37.3701 5.83594 36.8076 7.4707 36.8076 9.45703C36.8076 11.4609 37.4448 13.1001 38.7192 14.3745C39.9937 15.6489 41.6328 16.2861 43.6367 16.2861C44.8496 16.2861 46.2778 15.9697 47.9214 15.3369V17.4727ZM55.792 18V3.03662H49.2925V1.08545H64.9019V3.03662H58.4023V18H55.792ZM87.9863 13.1089L81.9878 1.08545H85.0859L89.7002 10.3535L95.2637 1.08545H97.7686L89.7529 14.6118C88.8828 16.0796 88.0522 17.0112 87.2612 17.4067C86.4702 17.8022 85.0508 18 83.0029 18H82.8184V16.0488H83.0293C84.3828 16.0488 85.3496 15.917 85.9297 15.6533C86.5098 15.3809 87.0327 14.8228 87.4985 13.979L87.9863 13.1089ZM98.3354 18V16.0488C99.0386 16.0049 99.5703 15.8115 99.9307 15.4688C100.3 15.126 100.616 14.5239 100.88 13.6626C101.513 11.5444 101.829 8.68799 101.829 5.09326V3.68262H111.427V18H108.83V5.63379H104.347V5.88428C104.347 9.90967 103.873 12.9419 102.923 14.981C101.983 16.9937 100.454 18 98.3354 18ZM117.293 18V1.08545H129.33V3.03662H119.891V18H117.293ZM137.135 18V3.03662H130.635V1.08545H146.245V3.03662H139.745V18H137.135ZM153.061 13.1089L147.062 1.08545H150.16L154.774 10.3535L160.338 1.08545H162.843L154.827 14.6118C153.957 16.0796 153.126 17.0112 152.335 17.4067C151.544 17.8022 150.125 18 148.077 18H147.893V16.0488H148.104C149.457 16.0488 150.424 15.917 151.004 15.6533C151.584 15.3809 152.107 14.8228 152.573 13.979L153.061 13.1089Z" fill="#335EEA"/>
</svg>
